<svg xmlns="http://www.w3.org/2000/svg" version="1.1" xmlns:xlink="http://www.w3.org/1999/xlink" xmlns:svgjs="http://svgjs.com/svgjs" width="512" height="512" x="0" y="0" viewBox="0 0 64 64" style="enable-background:new 0 0 512 512" xml:space="preserve"><g><path d="M55.614 45.312A13.288 13.288 0 0 0 63 33.361V29H43.279l-2.097 6.29c-.12.364-.182.743-.182 1.126 0 1.358.754 2.58 1.969 3.187L43 41.586c0 1.179.459 2.288 1.293 3.122A4.364 4.364 0 0 0 47 45.96v4.297a14.463 14.463 0 0 0-2.552 2.354 12.012 12.012 0 0 0-7.698-4.537l-.414-1.243c2.667-.61 4.664-2.996 4.664-5.845V29h-3v-3.53c0-1.207.563-2.355 1.544-3.149A11.94 11.94 0 0 0 44 13c0-3.41-1.458-6.671-4.002-8.946-2.541-2.273-5.956-3.355-9.376-2.977-5.265.588-9.67 4.802-10.475 10.021-.661 4.281.931 8.461 4.258 11.182 1.013.829 1.595 1.992 1.595 3.193V29h-3v11.986c0 2.849 1.997 5.235 4.664 5.845l-.415 1.244a12.203 12.203 0 0 0-7.694 4.541 14.48 14.48 0 0 0-2.556-2.359V45.96A4.378 4.378 0 0 0 21 41.586v-1.968l.031-.015A3.543 3.543 0 0 0 23 36.416c0-.383-.062-.762-.183-1.127L20.721 29H18V11.764l-4.658-9.316C12.896 1.555 11.999 1 11 1s-1.896.555-2.342 1.447L4 11.764V29H1v4.361c0 5.094 2.83 9.673 7.386 11.951l.614.307v1.635a11.54 11.54 0 0 0-8 10.993V63h62v-4.754a11.54 11.54 0 0 0-8-10.993v-1.635zM61 33.361c0 4.221-2.297 8.013-6 9.996v-2.943l1.121-1.121c.567-.566.879-1.32.879-2.122V37a3.006 3.006 0 0 0-2-2.829V31h6zM49 46h2v-2H47.413a2.395 2.395 0 0 1-1.705-.707A2.427 2.427 0 0 1 45 41.586v-3.204l-1.136-.569a1.563 1.563 0 0 1-.784-1.891L44.721 31H53v5h1c.551 0 1 .449 1 1v.171a.996.996 0 0 1-.293.708L53 39.586v7.747l-3.077 1.282c-.314.131-.622.272-.923.423zm-17 5.583-2.856-2.867.577-1.731h4.558l.577 1.731zm-4.348-1.529 2.935 2.945-2.006 2.006-1.094-4.925.165-.026zm8.697-.002.165.026-1.095 4.926-2.006-2.006zm-10.678-29.32c-2.773-2.268-4.099-5.756-3.548-9.33.67-4.341 4.337-7.848 8.72-8.338 2.895-.32 5.672.558 7.821 2.48A10.017 10.017 0 0 1 42 13a9.952 9.952 0 0 1-3.713 7.766c-1.327 1.073-2.129 2.597-2.26 4.234h-1.958l.6-9H36c1.654 0 3-1.346 3-3s-1.346-3-3-3h-.129a3.008 3.008 0 0 0-2.993 2.801L32.798 14h-1.596l-.08-1.2a3.008 3.008 0 0 0-2.993-2.8H28c-1.654 0-3 1.346-3 3s1.346 3 3 3h1.331l.6 9h-1.959c-.134-1.629-.951-3.165-2.301-4.268zM31.935 25l-.6-9h1.329l-.6 9zm2.867-11 .071-1.066c.035-.524.474-.934.998-.934H36c.551 0 1 .449 1 1s-.449 1-1 1zm-5.604 0H28c-.551 0-1-.449-1-1s.449-1 1-1h.129c.524 0 .963.41.998.934zM28 27h8v2h-8zm-3 13.986V31h14v9.986c0 2.206-1.794 4-4 4h-6c-2.206 0-4-1.795-4-4zM16.277 52.21l-.689 1.377-3.719-2.231-.417-1.667 1.855.773a12.515 12.515 0 0 1 2.97 1.748zm4.643-16.289c.053.16.08.326.08.495 0 .596-.331 1.132-.864 1.398L19 38.383v3.204c0 .645-.251 1.251-.708 1.708a2.395 2.395 0 0 1-1.705.705H13v2h2v3.039a14.566 14.566 0 0 0-.923-.423L11 47.333v-7.747l-1.707-1.707A.996.996 0 0 1 9 37.171V37c0-.551.449-1 1-1h1v-5h8.279zM12 29V13h4v16zM10.447 3.341c.211-.421.895-.421 1.105 0L15.382 11H6.618zM6 13h4v16H6zM3 33.361V31h6v3.171A3.006 3.006 0 0 0 7 37v.171c0 .801.312 1.555.879 2.122L9 40.414v2.943c-3.703-1.984-6-5.775-6-9.996zM9 61v-6H7v6H3v-2.754a9.543 9.543 0 0 1 6.286-8.979l.844 3.377 6.281 3.769 1.384-2.769A12.45 12.45 0 0 1 20.96 61zm13.966 0a14.462 14.462 0 0 0-2.163-6.684 10.18 10.18 0 0 1 4.75-3.72l1.866 8.399L32 54.414l4.581 4.581 1.868-8.407a10.025 10.025 0 0 1 4.749 3.726A14.455 14.455 0 0 0 41.034 61zM61 58.246V61h-4v-6h-2v6H43.04a12.463 12.463 0 0 1 7.653-10.539l3.378-1.407A9.547 9.547 0 0 1 61 58.246z" fill="#ff4300" data-original="#000000"></path><path d="M36 38h-2c0 .551-.449 1-1 1h-4v2h4c1.654 0 3-1.346 3-3zM49 24c0 1.654 1.346 3 3 3s3-1.346 3-3-1.346-3-3-3-3 1.346-3 3zm4 0c0 .551-.449 1-1 1s-1-.449-1-1 .449-1 1-1 1 .449 1 1zM48 8.728A3.732 3.732 0 0 1 51.728 5h.545A3.732 3.732 0 0 1 56 8.728c0 1.139-.51 2.2-1.399 2.911L51 14.52V19h2v-3.52l2.85-2.28A5.697 5.697 0 0 0 58 8.728 5.734 5.734 0 0 0 52.272 3h-.545A5.734 5.734 0 0 0 46 8.728V9h2z" fill="#ff4300" data-original="#000000"></path></g></svg>