<svg xmlns="http://www.w3.org/2000/svg" version="1.1" xmlns:xlink="http://www.w3.org/1999/xlink" xmlns:svgjs="http://svgjs.com/svgjs" width="512" height="512" x="0" y="0" viewBox="0 0 56 60" style="enable-background:new 0 0 512 512" xml:space="preserve" class=""><g><g fill="#000" fill-rule="nonzero"><path d="M5 36h1.836a23.132 23.132 0 0 0 8.22 10H12a2 2 0 0 0-2 2v.08A7 7 0 0 0 4 55v4a1 1 0 0 0 1 1h46a1 1 0 0 0 1-1v-4a7 7 0 0 0-6-6.92V48a2 2 0 0 0-2-2h-3.056a23.132 23.132 0 0 0 8.22-10H51a5.006 5.006 0 0 0 5-5v-8a5.006 5.006 0 0 0-5-5h-1.836A23.1 23.1 0 0 0 34 4.8V4a4 4 0 0 0-4-4h-4a4 4 0 0 0-4 4v.8A23.1 23.1 0 0 0 6.836 18H5a5.006 5.006 0 0 0-5 5v8a5.006 5.006 0 0 0 5 5zm1 22v-3a5.007 5.007 0 0 1 4.005-4.9 9.978 9.978 0 0 0 4.02 7.9zm40-7.9a5.007 5.007 0 0 1 4 4.9v3h-8.025A9.978 9.978 0 0 0 46 50.1zm-2-.1a8.009 8.009 0 0 1-8 8H20a8.009 8.009 0 0 1-8-8v-2h2v2.121a5.627 5.627 0 0 0 .939 3.223A6.157 6.157 0 0 0 20 56h16a6.157 6.157 0 0 0 5.061-2.656A5.627 5.627 0 0 0 42 50.121V48h2zm-4-2v2.121a3.7 3.7 0 0 1-.584 2.086A4.212 4.212 0 0 1 36 54H20a4.212 4.212 0 0 1-3.416-1.793A3.7 3.7 0 0 1 16 50.121V48h2.637a22.916 22.916 0 0 0 18.726 0zm11-28a3 3 0 0 1 3 3v8a3 3 0 0 1-3 3h-1.093a22.962 22.962 0 0 0 0-14zM24 4a2 2 0 0 1 2-2h4a2 2 0 0 1 2 2v.355a22.713 22.713 0 0 0-8 0zm4 2c11.598 0 21 9.402 21 21s-9.402 21-21 21S7 38.598 7 27c.013-11.593 9.407-20.987 21-21zM2 23a3 3 0 0 1 3-3h1.093a22.962 22.962 0 0 0 0 14H5a3 3 0 0 1-3-3z" fill="#ff4300" data-original="#000000" class=""></path><path d="M28 43c8.837 0 16-7.163 16-16s-7.163-16-16-16-16 7.163-16 16c.01 8.832 7.168 15.99 16 16zm0-30c7.732 0 14 6.268 14 14s-6.268 14-14 14-14-6.268-14-14c.008-7.729 6.271-13.992 14-14z" fill="#ff4300" data-original="#000000" class=""></path><path d="M28 39c6.627 0 12-5.373 12-12s-5.373-12-12-12-12 5.373-12 12c.007 6.624 5.376 11.993 12 12zm0-22c5.523 0 10 4.477 10 10s-4.477 10-10 10-10-4.477-10-10c.006-5.52 4.48-9.994 10-10z" fill="#ff4300" data-original="#000000" class=""></path><circle cx="28" cy="9" r="1" fill="#ff4300" data-original="#000000" class=""></circle><path d="M15.979 14.979a1 1 0 1 0-1.414-1.414 1 1 0 0 0 1.414 1.414z" fill="#ff4300" data-original="#000000" class=""></path><circle cx="10" cy="27" r="1" fill="#ff4300" data-original="#000000" class=""></circle><path d="M14.565 39.021a1 1 0 1 0 1.414 1.414 1 1 0 0 0-1.414-1.414z" fill="#ff4300" data-original="#000000" class=""></path><circle cx="28" cy="45" r="1" fill="#ff4300" data-original="#000000" class=""></circle><path d="M40.021 39.021a1 1 0 1 0 1.414 1.414 1 1 0 0 0-1.414-1.414z" fill="#ff4300" data-original="#000000" class=""></path><circle cx="46" cy="27" r="1" fill="#ff4300" data-original="#000000" class=""></circle><path d="M41.435 14.979a1 1 0 1 0-1.414-1.414 1 1 0 0 0 1.414 1.414zM22 28a1 1 0 0 0 1-1 5.006 5.006 0 0 1 5-5 1 1 0 0 0 0-2 7.008 7.008 0 0 0-7 7 1 1 0 0 0 1 1zM4 14a3 3 0 1 0 0-6 3 3 0 0 0 0 6zm0-4a1 1 0 1 1 0 2 1 1 0 0 1 0-2zM10 8a4 4 0 1 0 0-8 4 4 0 0 0 0 8zm0-6a2 2 0 1 1 0 4 2 2 0 0 1 0-4z" fill="#ff4300" data-original="#000000" class=""></path><circle cx="3" cy="5" r="1" fill="#ff4300" data-original="#000000" class=""></circle><path d="M49 11a3 3 0 1 0 6 0 3 3 0 0 0-6 0zm3-1a1 1 0 1 1 0 2 1 1 0 0 1 0-2zM46 8a4 4 0 1 0 0-8 4 4 0 0 0 0 8zm0-6a2 2 0 1 1 0 4 2 2 0 0 1 0-4z" fill="#ff4300" data-original="#000000" class=""></path><circle cx="53" cy="5" r="1" fill="#ff4300" data-original="#000000" class=""></circle></g></g></svg>