<svg xmlns="http://www.w3.org/2000/svg" version="1.1" xmlns:xlink="http://www.w3.org/1999/xlink" xmlns:svgjs="http://svgjs.com/svgjs" width="512" height="512" x="0" y="0" viewBox="0 0 512 512" style="enable-background:new 0 0 512 512" xml:space="preserve"><g><path d="M256 512c-66.969 0-130.082-10.664-177.715-30.023C27.805 461.453 0 433.05 0 402c0-20.77 12.61-40.719 36.465-57.688a9.996 9.996 0 0 1 13.945 2.352c3.2 4.5 2.149 10.742-2.351 13.945C35.258 369.715 20 384.285 20 402c0 22.047 23.988 44.445 65.816 61.445C131.113 481.86 191.551 492 256 492s124.887-10.14 170.184-28.555C468.012 446.445 492 424.047 492 402s-23.988-44.445-65.816-61.445C380.887 322.14 320.449 312 256 312c-51.598 0-100.746 6.496-142.129 18.79-5.3 1.573-10.863-1.446-12.434-6.74-1.574-5.292 1.442-10.862 6.739-12.433C151.383 298.781 202.5 292 256 292c66.969 0 130.082 10.664 177.715 30.023C484.195 342.547 512 370.95 512 402s-27.805 59.453-78.285 79.977C386.082 501.336 322.969 512 256 512zm0 0" fill="#ff4300" data-original="#000000"></path><path d="M73.68 344.867c-3.828 0-7.48-2.207-9.14-5.93-2.247-5.042.019-10.957 5.062-13.203l.57-.254c5.043-2.25 10.953.016 13.203 5.06a9.999 9.999 0 0 1-5.063 13.206l-.566.254a9.971 9.971 0 0 1-4.066.867zM256 453.172c-37.535 0-72.973-5.195-99.773-14.625-38.543-13.563-46.633-31.074-46.633-43.375s8.09-29.813 46.633-43.375c26.804-9.43 62.238-14.625 99.773-14.625s72.973 5.195 99.773 14.625c38.543 13.562 46.633 31.074 46.633 43.375s-8.09 29.812-46.633 43.375c-26.8 9.43-62.238 14.625-99.773 14.625zm0-96c-77.164 0-126.406 22.508-126.406 38s49.242 38 126.406 38 126.406-22.508 126.406-38-49.242-38-126.406-38zm0 0" fill="#ff4300" data-original="#000000"></path><path d="M256 420.73c-24.785 0-51.46-8.136-51.46-26s26.675-26 51.46-26 51.46 8.137 51.46 26-26.675 26-51.46 26zm-29.98-26c4.238 2.622 14.734 6 29.98 6s25.738-3.378 29.98-6c-4.238-2.62-14.734-6-29.98-6s-25.738 3.383-29.98 6zM256 266.184c-25.648 0-49.762-9.989-67.898-28.125-15.395-15.395-25.18-35.793-27.555-57.434-2.371-21.64 2.762-43.676 14.457-62.04L247.563 4.63a10.005 10.005 0 0 1 16.875 0L337 118.586c11.691 18.363 16.824 40.398 14.453 62.039-2.375 21.64-12.156 42.04-27.555 57.434-18.136 18.136-42.25 28.125-67.898 28.125zm0-237.567-64.129 100.711c-19.289 30.293-15.023 69.192 10.371 94.59 29.64 29.64 77.875 29.64 107.516 0 25.394-25.398 29.66-64.297 10.37-94.59zm0 0" fill="#ff4300" data-original="#000000"></path><path d="M296.984 178.078c-4.343 0-8.34-2.851-9.601-7.23-1.625-5.282 1.336-10.875 6.613-12.5s10.875 1.336 12.5 6.617l.106.344c1.527 5.304-1.536 10.847-6.844 12.375a9.872 9.872 0 0 1-2.774.394zM256 225.855c-14.27 0-28.535-5.433-39.398-16.292-3.907-3.907-3.907-10.239 0-14.145s10.234-3.906 14.14 0c13.93 13.926 36.59 13.926 50.516 0 3.906-3.906 10.234-3.906 14.144 0 3.903 3.906 3.903 10.238 0 14.144-10.867 10.86-25.132 16.293-39.402 16.293zm0 0" fill="#ff4300" data-original="#000000"></path></g></svg>