<svg xmlns="http://www.w3.org/2000/svg" version="1.1" xmlns:xlink="http://www.w3.org/1999/xlink" xmlns:svgjs="http://svgjs.com/svgjs" width="512" height="512" x="0" y="0" viewBox="0 0 512 512" style="enable-background:new 0 0 512 512" xml:space="preserve" class=""><g><path d="M412.832 173.511H171.695c-8.635 0-15.635 7-15.635 15.635V447.23c0 8.635 7 15.635 15.635 15.635H420.23" style="stroke-width:15;stroke-linecap:round;stroke-linejoin:round;stroke-miterlimit:10;" fill="none" stroke="#ff4300" stroke-width="15" stroke-linecap="round" stroke-linejoin="round" stroke-miterlimit="10" data-original="#000000"></path><path d="M362.903 215.304c-1.981-2.747-6.061-2.747-8.043 0-5.716 7.926-15.507 22.617-15.507 30.253 0 10.785 8.743 19.528 19.528 19.528 10.785 0 19.528-8.743 19.528-19.528 0-7.637-9.79-22.327-15.506-30.253zM224.013 204.177h58.739M224.013 238.799h58.739M234.822 339.37l17.582 26.98 17.507-26.84M252.404 394.522V366.35" style="stroke-width:15;stroke-linecap:round;stroke-linejoin:round;stroke-miterlimit:10;" fill="none" stroke="#ff4300" stroke-width="15" stroke-linecap="round" stroke-linejoin="round" stroke-miterlimit="10" data-original="#000000"></path><path d="M196.181 316.859v100.174a6.098 6.098 0 0 0 6.098 6.098h100.175a6.098 6.098 0 0 0 6.098-6.098V316.859a6.098 6.098 0 0 0-6.098-6.098H202.279a6.098 6.098 0 0 0-6.098 6.098zM156.061 269.466H308.79c3.528 0 6.84 1.782 8.711 4.774 8.619 13.78 23.929 22.946 41.381 22.946s32.761-9.166 41.381-22.946c1.871-2.991 5.182-4.773 8.711-4.773h11.257" style="stroke-width:15;stroke-linecap:round;stroke-linejoin:round;stroke-miterlimit:10;" fill="none" stroke="#ff4300" stroke-width="15" stroke-linecap="round" stroke-linejoin="round" stroke-miterlimit="10" data-original="#000000"></path><path d="M420.23 400.36V484c0 11.32-9.18 20.5-20.5 20.5H112.27c-11.32 0-20.5-9.18-20.5-20.5V211.64c0-50.79 37.15-92.91 85.76-100.66 5.91-.94 10.28-6 10.28-11.99V68.85M324.19 68.85v30.14c0 5.99 4.37 11.05 10.28 11.99 48.61 7.75 85.76 49.87 85.76 100.66v153.72M238.856 7.5h100.211c5.523 0 10 4.477 10 10v41.347c0 5.523-4.477 10-10 10H172.934c-5.523 0-10-4.477-10-10V17.5c0-5.523 4.477-10 10-10h30.922" style="stroke-width:15;stroke-linecap:round;stroke-linejoin:round;stroke-miterlimit:10;" fill="none" stroke="#ff4300" stroke-width="15" stroke-linecap="round" stroke-linejoin="round" stroke-miterlimit="10" data-original="#000000"></path></g></svg>