<svg xmlns="http://www.w3.org/2000/svg" version="1.1" xmlns:xlink="http://www.w3.org/1999/xlink" xmlns:svgjs="http://svgjs.com/svgjs" width="512" height="512" x="0" y="0" viewBox="0 0 512 512" style="enable-background:new 0 0 512 512" xml:space="preserve" class=""><g><path d="M504.5 295.98h-66.437v-12.378c0-20.583-16.686-37.269-37.269-37.269s-37.269 16.686-37.269 37.269v12.378h-66.437v66.44h11.622c20.358 0 37.526 16.012 38.011 36.365a37.087 37.087 0 0 1-10.907 27.248 37.121 37.121 0 0 1-26.357 10.918h-12.369v66.44h184.314c12.757 0 23.098-10.341 23.098-23.098V295.98zM202.534 75.045h12.378V8.608H30.598C17.841 8.608 7.5 18.949 7.5 31.705V216.02h66.437v11.642c0 20.897 17.102 38.397 37.995 37.998 20.247-.387 36.542-16.922 36.542-37.262V216.02h66.438v-66.437h-12.378c-20.583 0-37.269-16.686-37.269-37.269.001-20.583 16.686-37.269 37.269-37.269zM422.324 94.814V31.705c0-12.757-10.341-23.098-23.098-23.098H214.912M214.912 216.02h66.438v-11.622c0-20.358 16.012-37.526 36.365-38.011a37.084 37.084 0 0 1 27.248 10.908 37.121 37.121 0 0 1 10.918 26.357v12.369h66.443v-86.206" style="stroke-width:15;stroke-linecap:round;stroke-linejoin:round;stroke-miterlimit:10;" fill="none" stroke="#ff4300" stroke-width="15" stroke-linecap="round" stroke-linejoin="round" stroke-miterlimit="10" data-original="#000000" class=""></path><path d="M128.706 423.431h86.206v-66.437h12.585c20.583 0 37.269-16.686 37.269-37.269s-16.686-37.269-37.269-37.269h-12.585V216.02M7.5 216.02v184.314c0 12.757 10.341 23.098 23.098 23.098h63.108" style="stroke-width:15;stroke-linecap:round;stroke-linejoin:round;stroke-miterlimit:10;" fill="none" stroke="#ff4300" stroke-width="15" stroke-linecap="round" stroke-linejoin="round" stroke-miterlimit="10" data-original="#000000" class=""></path></g></svg>