<?xml version="1.0" encoding="UTF-8" standalone="no"?>
<!-- Created with Inkscape (http://www.inkscape.org/) -->

<svg
   width="240"
   height="65"
   viewBox="0 0 63.499998 17.197917"
   version="1.1"
   id="svg1788"
   inkscape:version="1.1.2 (0a00cf5339, 2022-02-04)"
   sodipodi:docname="head-logo.svg"
   xmlns:inkscape="http://www.inkscape.org/namespaces/inkscape"
   xmlns:sodipodi="http://sodipodi.sourceforge.net/DTD/sodipodi-0.dtd"
   xmlns="http://www.w3.org/2000/svg"
   xmlns:svg="http://www.w3.org/2000/svg">
  <sodipodi:namedview
     id="namedview1790"
     pagecolor="#ffffff"
     bordercolor="#999999"
     borderopacity="1"
     inkscape:pageshadow="0"
     inkscape:pageopacity="0"
     inkscape:pagecheckerboard="false"
     inkscape:document-units="px"
     showgrid="false"
     showborder="true"
     inkscape:zoom="1.3273709"
     inkscape:cx="33.148232"
     inkscape:cy="132.21624"
     inkscape:window-width="1920"
     inkscape:window-height="1074"
     inkscape:window-x="0"
     inkscape:window-y="27"
     inkscape:window-maximized="1"
     inkscape:current-layer="layer1"
     units="px" />
  <defs
     id="defs1785">
    <filter
       inkscape:collect="always"
       style="color-interpolation-filters:sRGB"
       id="filter889"
       x="-0.0354673"
       width="1.0709346"
       y="-0.010098748"
       height="1.0201975">
      <feGaussianBlur
         inkscape:collect="always"
         stdDeviation="0.19846674"
         id="feGaussianBlur891" />
    </filter>
  </defs>
  <g
     inkscape:label="Layer 1"
     inkscape:groupmode="layer"
     id="layer1">
    <g
       id="g7121"
       transform="translate(-3.7338091)"
       style="fill:#f2f2f2">
      <text
         id="text10752"
         y="12.218957"
         x="48.224777"
         style="font-style:normal;font-variant:normal;font-weight:normal;font-stretch:normal;font-size:4.53949px;line-height:1.25;font-family:'Fixedsys Excelsior';-inkscape-font-specification:'Fixedsys Excelsior, Normal';font-variant-ligatures:normal;font-variant-caps:normal;font-variant-numeric:normal;font-feature-settings:normal;text-align:start;letter-spacing:0px;word-spacing:0px;writing-mode:lr-tb;text-anchor:start;fill:#f2f2f2;fill-opacity:1;stroke:none;stroke-width:0.113729"
         xml:space="preserve"
         inkscape:export-xdpi="149.94072"
         inkscape:export-ydpi="149.94072"
         inkscape:export-filename="C:\Users\felixd\Documents\Projekty\flameit\visual-logo\circle-logo.png"><tspan
           style="font-style:normal;font-variant:normal;font-weight:normal;font-stretch:normal;font-size:4.53949px;font-family:'Fixedsys Excelsior';-inkscape-font-specification:'Fixedsys Excelsior, Normal';font-variant-ligatures:normal;font-variant-caps:normal;font-variant-numeric:normal;font-feature-settings:normal;text-align:center;writing-mode:lr-tb;text-anchor:middle;fill:#f2f2f2;fill-opacity:1;stroke-width:0.113729"
           y="12.218957"
           x="48.224777"
           sodipodi:role="line"
           id="tspan10750">Immersion Cooling</tspan></text>
      <path
         inkscape:export-filename="C:\Users\8200\flameit-logo.png"
         style="fill:#f2f2f2;fill-opacity:1;stroke:none;stroke-width:0.0827059;stroke-linecap:butt;stroke-linejoin:round;stroke-miterlimit:4;stroke-dasharray:none;stroke-dashoffset:0;stroke-opacity:1"
         d="m 10.347887,-3e-7 c 0,0 -0.938739,1.175699 -0.768646,1.9152828 C 9.749335,2.654866 9.77663,3.773518 9.77663,3.773518 c 0,0 0.02948,1.6392587 -0.522333,1.06006 C 8.70248,4.2543792 9.063492,3.960344 9.140788,3.6860888 9.259372,3.265339 9.131588,2.3033122 8.876796,1.9839656 c 0,-4e-7 0.213103,0.4437233 -0.220075,1.1807798 C 8.223544,3.9018015 8.240928,4.4110798 8.407583,4.8107108 8.574239,5.2103418 8.372573,5.5984174 8.191868,5.7208803 8.01116,5.8433432 7.625549,5.8118713 7.804115,5.0220923 7.977033,4.2572893 8.1826,4.1540359 7.689637,3.4604859 7.788047,3.6246218 7.956557,4.0902889 7.370021,4.8548292 6.624956,5.8260094 6.94078,7.2201673 7.146152,7.4374673 4.16025,7.4167103 5.963473,7.4282573 5.372156,7.4220343 c -0.907658,0 -1.638367,0.7313592 -1.638367,1.6398246 v 3.5004831 c 0,0.908465 0.730709,1.639824 1.638367,1.639824 h 19.61786 c 0.907657,0 1.638367,-0.731359 1.638367,-1.639824 V 9.0618589 c 0,-0.9084654 -0.73071,-1.6398246 -1.638367,-1.6398246 h -1.701419 c 0,0 0.193357,-1.2061566 -0.01712,-2.0355184 -0.218532,-0.8611394 -1.033558,-1.1727922 -0.485197,-3.1329903 0,0 -1.054525,1.5556058 -0.363372,2.8757123 0.691151,1.3201065 0.230604,1.8775258 -0.235899,1.9046976 C 21.72051,7.0611073 21.281376,6.814597 21.621893,5.7858461 21.962411,4.7570952 21.200208,3.7476221 21.084947,3.346553 20.977244,2.9717787 20.933657,2.7218619 20.933657,2.7218619 c -0.08542,0.5901804 0.239463,1.4909432 0.208287,2.2402742 -0.018,0.4325378 0.205202,1.2862213 -0.22726,1.278633 -1.446984,-0.02539 0.276832,-2.6939697 -0.610008,-4.302377 0,0 -0.278599,-0.6004863 -0.269239,-0.9318244 0,-5e-7 -0.398208,1.6485258 -0.05926,2.4837346 0.271552,0.6691317 -0.121686,1.7808508 -0.478497,1.2070411 -0.254904,-0.4099271 -0.198295,-0.9742065 -0.09187,-1.61526 0.07997,-0.4817109 -0.04037,-1.208334 -0.04037,-1.208334 0,0 -0.07433,0.7265304 -0.524836,1.576313 -0.450505,0.8497818 -0.05878,1.3355455 0.130785,1.8731843 0.189562,0.5376387 0.0052,0.9551409 -0.647629,1.0107696 -0.652787,0.055629 -0.844847,-0.3384001 -0.557209,-0.8588595 0.226099,-0.4091125 0.485522,-0.41056 0.362565,-1.2006575 -0.215743,-1.3863271 -0.677635,-1.8866386 -0.312915,-3.5462995 0,0 -0.542207,0.8326338 -0.457103,1.9847739 0.07125,0.9646096 0.178932,0.8377986 0.111975,1.3600828 -0.07336,0.5722231 -0.726693,0.7021101 -0.656025,-0.2462079 L 16.96699,1.7880173 c 0,0 -0.608371,0.9287381 -0.701638,2.0541838 -0.05677,0.6850597 -0.15383,0.8652307 0.08009,1.368163 0.233915,0.5029328 -0.02465,0.9267271 -0.360386,1.1426409 -0.298064,0.1916846 -0.834879,0.1476464 -1.05484,-0.1303359 -0.553225,-0.699155 0.396802,-1.7112295 0.289019,-2.6598863 -0.05404,-0.5032848 -0.475476,-1.1054459 -0.337377,-1.4805603 0,0 -0.334008,0.3725361 -0.31453,0.8224974 0.01948,0.4499613 0.05579,1.5203968 0.05579,1.5203968 0,0 -0.09774,0.5496046 -0.526209,0.6110356 -0.428471,0.061431 -0.631578,-0.3981871 -0.166146,-1.126561 0.465432,-0.7283739 0.108261,-1.6006348 0.108261,-1.6006348 0,0 -0.394281,-1.1891559 -0.118191,-1.758282 0,0 -0.753644,0.6987847 -0.465014,1.3524068 0.523746,1.1860584 -0.81949,2.5652783 -0.618404,1.5671819 0,0 0.619726,-1.2056134 0.248896,-1.900577 0,0 0.0017,0.6750909 -0.37952,0.9872559 -0.381195,0.3121649 -1.215508,1.0499661 -0.452985,1.8125818 0.762524,0.7626157 -0.550503,2.322079 -0.537672,1.9074451 0.01283,-0.4146339 0.159089,-0.4654702 -0.161867,-1.6121894 -0.320955,-1.1467188 -0.05187,-2.3313809 0.0037,-2.5465189 0.05558,-0.215138 -0.803647,0.9228994 -0.55947,1.7776747 0.244176,0.8547754 -0.295155,1.5113468 -0.295155,1.5113468 0,0 -0.66241,1.0267907 -0.626881,0.1805147 0.02348,-0.5593914 0.222617,-0.8446687 0.438373,-1.669075 C 10.682101,3.279579 10.45512,3.2163992 10.151053,1.9499472 9.930662,1.0320156 10.347877,-3e-7 10.347877,-3e-7 Z m -2.65825,3.4604862 c -0.0266,-0.044362 -0.04836,-0.068036 -0.04836,-0.068036 0.01762,0.023955 0.03226,0.045388 0.04836,0.068036 z M 5.637763,7.9368327 H 24.72449 c 0.769815,0 1.389552,0.6202872 1.389552,1.3907882 V 12.29658 c 0,0.7705 -0.619737,1.390788 -1.389552,1.390788 H 5.637763 c -0.769816,0 -1.389552,-0.620288 -1.389552,-1.390788 V 9.3276209 c 0,-0.770501 0.619736,-1.3907882 1.389552,-1.3907882 z"
         id="path5372"
         inkscape:connector-curvature="0"
         inkscape:export-xdpi="484"
         inkscape:export-ydpi="484" />
      <path
         inkscape:connector-curvature="0"
         d="m 217.58341,401.51575 v -60.677 h 33.73641 v 6.71492 h -20.22567 v 20.22567 h 13.51075 v 6.79582 h -13.51075 v 26.94059 z"
         style="font-style:normal;font-variant:normal;font-weight:normal;font-stretch:normal;font-size:80.9027px;line-height:1.25;font-family:Silom;-inkscape-font-specification:'Silom, Normal';font-variant-ligatures:normal;font-variant-caps:normal;font-variant-numeric:normal;font-feature-settings:normal;text-align:start;letter-spacing:0px;word-spacing:0px;writing-mode:lr-tb;text-anchor:start;fill:#f2f2f2;fill-opacity:1;stroke:none;stroke-width:2.02257;filter:url(#filter889)"
         id="path5374"
         transform="matrix(0.04851568,0,0,0.04855882,-4.05125,-7.1534589)" />
      <path
         inkscape:connector-curvature="0"
         d="m 264.8293,401.51575 v -60.677 h 13.51074 v 60.677 z"
         style="font-style:normal;font-variant:normal;font-weight:normal;font-stretch:normal;font-size:80.9027px;line-height:1.25;font-family:Silom;-inkscape-font-specification:'Silom, Normal';font-variant-ligatures:normal;font-variant-caps:normal;font-variant-numeric:normal;font-feature-settings:normal;text-align:start;letter-spacing:0px;word-spacing:0px;writing-mode:lr-tb;text-anchor:start;fill:#f2f2f2;fill-opacity:1;stroke:none;stroke-width:2.02257;filter:url(#filter889)"
         id="path5376"
         transform="matrix(0.04851568,0,0,0.04855882,-4.05125,-7.1534589)" />
      <path
         inkscape:connector-curvature="0"
         d="m 318.87101,374.57516 v -6.79582 q 0,-2.75069 -2.02257,-4.69236 -1.94166,-2.02257 -4.77326,-2.02257 h -6.71492 q -5.98679,0 -6.71492,6.71493 h -6.79582 q 1.61805,-13.42985 13.51074,-13.42985 h 13.51075 q 5.50138,0 9.46561,3.96423 3.96423,3.96423 3.96423,9.46562 v 33.73641 h -13.42984 v -6.71492 q -0.80903,6.71492 -6.79583,6.71492 h -6.71492 q -5.50138,0 -9.54651,-3.96423 -3.96423,-3.96423 -3.96423,-9.54652 v 0 q 0,-5.50138 3.96423,-9.46561 4.04513,-3.96423 9.54651,-3.96423 z m 0,6.71492 h -6.79583 q -2.75069,0 -4.77325,2.02257 -1.94167,1.94166 -1.94167,4.69235 v 0 q 0,2.75069 1.94167,4.77326 2.02256,2.02257 4.77325,2.02257 2.8316,0 4.77326,-2.02257 2.02257,-2.02257 2.02257,-4.77326 z"
         style="font-style:normal;font-variant:normal;font-weight:normal;font-stretch:normal;font-size:80.9027px;line-height:1.25;font-family:Silom;-inkscape-font-specification:'Silom, Normal';font-variant-ligatures:normal;font-variant-caps:normal;font-variant-numeric:normal;font-feature-settings:normal;text-align:start;letter-spacing:0px;word-spacing:0px;writing-mode:lr-tb;text-anchor:start;fill:#f2f2f2;fill-opacity:1;stroke:none;stroke-width:2.02257;filter:url(#filter889)"
         id="path5378"
         transform="matrix(0.04851568,0,0,0.04855882,-4.05125,-7.1534589)" />
      <path
         inkscape:connector-curvature="0"
         d="m 386.3413,401.51575 h -13.42984 v -33.73641 q 0,-2.75069 -2.02257,-4.69236 -1.94166,-2.02257 -4.77325,-2.02257 -2.75069,0 -4.77326,2.02257 -1.94167,1.94167 -1.94167,4.69236 v 33.73641 h -13.51074 v -47.16626 h 13.51074 v 6.71492 q 0.40452,-3.39791 2.10347,-5.01596 1.69896,-1.69896 4.61146,-1.69896 h 6.79582 q 6.87673,0 10.11283,4.77326 1.61806,-2.42708 4.12604,-3.55972 2.50798,-1.21354 5.9868,-1.21354 h 6.71492 q 5.50138,0 9.46561,3.96423 4.04513,3.96423 4.04513,9.46562 v 33.73641 h -13.51074 v -33.73641 q 0,-2.66979 -2.02257,-4.69236 -1.94166,-2.02257 -4.69235,-2.02257 -2.75069,0 -4.77326,2.02257 -2.02257,1.94167 -2.02257,4.69236 z"
         style="font-style:normal;font-variant:normal;font-weight:normal;font-stretch:normal;font-size:80.9027px;line-height:1.25;font-family:Silom;-inkscape-font-specification:'Silom, Normal';font-variant-ligatures:normal;font-variant-caps:normal;font-variant-numeric:normal;font-feature-settings:normal;text-align:start;letter-spacing:0px;word-spacing:0px;writing-mode:lr-tb;text-anchor:start;fill:#f2f2f2;fill-opacity:1;stroke:none;stroke-width:2.02257;filter:url(#filter889)"
         id="path5380"
         transform="matrix(0.04851568,0,0,0.04855882,-4.05125,-7.1534589)" />
      <path
         inkscape:connector-curvature="0"
         d="m 467.24397,381.29008 h -26.94059 v 6.71492 q 0,2.75069 1.94166,4.77326 2.02257,2.02257 4.77326,2.02257 h 6.79582 q 6.71493,0 6.71493,-6.79583 h 6.71492 q -1.53715,13.51075 -13.42985,13.51075 h -13.51074 q -5.50138,0 -9.54652,-3.96423 -3.96423,-3.96423 -3.96423,-9.54652 v -20.22566 q 0,-5.50139 3.96423,-9.46562 4.04514,-3.96423 9.54652,-3.96423 h 13.51074 q 5.50139,0 9.46562,3.96423 3.96423,3.96423 3.96423,9.46562 z m -26.94059,-6.71492 h 13.51074 v -6.79582 q 0,-2.75069 -2.02256,-4.69236 -1.94167,-2.02257 -4.77326,-2.02257 -2.75069,0 -4.77326,2.02257 -1.94166,1.94167 -1.94166,4.69236 z"
         style="font-style:normal;font-variant:normal;font-weight:normal;font-stretch:normal;font-size:80.9027px;line-height:1.25;font-family:Silom;-inkscape-font-specification:'Silom, Normal';font-variant-ligatures:normal;font-variant-caps:normal;font-variant-numeric:normal;font-feature-settings:normal;text-align:start;letter-spacing:0px;word-spacing:0px;writing-mode:lr-tb;text-anchor:start;fill:#f2f2f2;fill-opacity:1;stroke:none;stroke-width:2.02257;filter:url(#filter889)"
         id="path5382"
         transform="matrix(0.04851568,0,0,0.04855882,-4.05125,-7.1534589)" />
      <path
         inkscape:connector-curvature="0"
         d="m 507.85457,401.51575 v -60.677 h 13.42984 v 60.677 z"
         style="font-style:normal;font-variant:normal;font-weight:normal;font-stretch:normal;font-size:80.9027px;line-height:1.25;font-family:Silom;-inkscape-font-specification:'Silom, Normal';font-variant-ligatures:normal;font-variant-caps:normal;font-variant-numeric:normal;font-feature-settings:normal;text-align:start;letter-spacing:0px;word-spacing:0px;writing-mode:lr-tb;text-anchor:start;fill:#f2f2f2;fill-opacity:1;stroke:none;stroke-width:2.02257;filter:url(#filter889)"
         id="path5384"
         transform="matrix(0.04851568,0,0,0.04855882,-4.05125,-7.1534589)" />
      <path
         inkscape:connector-curvature="0"
         d="m 548.30593,401.51575 v -53.96208 h -13.51075 v -6.71492 h 40.45133 v 6.71492 h -13.51074 v 53.96208 z"
         style="font-style:normal;font-variant:normal;font-weight:normal;font-stretch:normal;font-size:80.9027px;line-height:1.25;font-family:Silom;-inkscape-font-specification:'Silom, Normal';font-variant-ligatures:normal;font-variant-caps:normal;font-variant-numeric:normal;font-feature-settings:normal;text-align:start;letter-spacing:0px;word-spacing:0px;writing-mode:lr-tb;text-anchor:start;fill:#f2f2f2;fill-opacity:1;stroke:none;stroke-width:2.02257;filter:url(#filter889)"
         id="path5386"
         transform="matrix(0.04851568,0,0,0.04855882,-4.05125,-7.1534589)" />
      <path
         id="path5392"
         style="fill:#f2f2f2;fill-opacity:1;stroke:none;stroke-width:0.124149"
         d="m 7.927138,16.388277 c -0.001,0.06465 0.0071,0.130192 0.02476,0.195122 0.115648,0.605111 0.971726,0.835879 1.366393,0.358645 0.44535,-0.433931 0.133246,-1.287315 -0.488463,-1.327031 -0.46801,-0.09083 -0.897343,0.32076 -0.902682,0.773264 z m 0.286832,0.0046 c 0.0035,-0.290228 0.278776,-0.554429 0.578935,-0.49619 0.398738,0.02547 0.598833,0.57285 0.313198,0.851171 -0.253121,0.30608 -0.802139,0.158052 -0.876306,-0.23003 -0.01136,-0.04165 -0.01631,-0.08351 -0.0158,-0.124951 z" />
      <rect
         style="fill:#f2f2f2;fill-opacity:1;stroke:none;stroke-width:0.0763291"
         id="rect5394"
         width="1.6023136"
         height="0.27491748"
         x="-15.745258"
         y="8.6094923"
         transform="rotate(-90)" />
      <path
         id="path5398"
         style="fill:#f2f2f2;fill-opacity:1;stroke:none;stroke-width:0.124149"
         d="m 12.229546,16.388294 c -10e-4,0.06465 0.007,0.130192 0.02476,0.195123 0.115649,0.60511 0.971727,0.835879 1.366394,0.358644 0.44535,-0.43393 0.133246,-1.287314 -0.488463,-1.327031 -0.46801,-0.09083 -0.897343,0.32076 -0.902682,0.773264 z m 0.286833,0.0046 c 0.0035,-0.290228 0.278776,-0.554429 0.578935,-0.49619 0.398738,0.02547 0.598833,0.57285 0.313198,0.851171 -0.253121,0.30608 -0.802139,0.158052 -0.876306,-0.23003 -0.01136,-0.04165 -0.01631,-0.0835 -0.0158,-0.124951 z" />
      <rect
         style="fill:#f2f2f2;fill-opacity:1;stroke:none;stroke-width:0.0763291"
         id="rect5400"
         width="1.6023136"
         height="0.27491748"
         x="-15.745274"
         y="12.911902"
         transform="rotate(-90)" />
      <path
         id="path5404"
         style="fill:#f2f2f2;fill-opacity:1;stroke:none;stroke-width:0.124149"
         d="m 16.531973,16.388268 c -0.001,0.06465 0.007,0.130192 0.02476,0.195123 0.115648,0.60511 0.971726,0.835879 1.366393,0.358644 0.445351,-0.433931 0.133246,-1.287314 -0.488463,-1.327031 -0.46801,-0.09083 -0.897342,0.32076 -0.902682,0.773264 z m 0.286832,0.0046 c 0.0035,-0.290228 0.278776,-0.554429 0.578935,-0.49619 0.398739,0.02547 0.598833,0.57285 0.313198,0.851171 -0.253121,0.30608 -0.802139,0.158052 -0.876306,-0.23003 -0.01136,-0.04165 -0.01631,-0.08351 -0.0158,-0.124951 z" />
      <rect
         style="fill:#f2f2f2;fill-opacity:1;stroke:none;stroke-width:0.0763291"
         id="rect5406"
         width="1.6023136"
         height="0.27491748"
         x="-15.745251"
         y="17.214334"
         transform="rotate(-90)" />
      <path
         id="path5410"
         style="fill:#f2f2f2;fill-opacity:1;stroke:none;stroke-width:0.124149"
         d="m 20.834382,16.388277 c -0.001,0.06465 0.007,0.130192 0.02476,0.195122 0.115648,0.605111 0.971726,0.835879 1.366393,0.358645 0.445351,-0.433931 0.133246,-1.287315 -0.488463,-1.327031 -0.46801,-0.09083 -0.897342,0.32076 -0.902682,0.773264 z m 0.286832,0.0046 c 0.0035,-0.290228 0.278776,-0.554429 0.578935,-0.49619 0.398739,0.02547 0.598833,0.57285 0.313199,0.851171 -0.253122,0.30608 -0.80214,0.158052 -0.876307,-0.23003 -0.01136,-0.04165 -0.01631,-0.08351 -0.0158,-0.124951 z" />
      <rect
         style="fill:#f2f2f2;fill-opacity:1;stroke:none;stroke-width:0.0763291"
         id="rect5412"
         width="1.6023136"
         height="0.27491748"
         x="-15.745258"
         y="21.516745"
         transform="rotate(-90)" />
    </g>
  </g>
</svg>
