<?xml version="1.0" encoding="UTF-8" standalone="no"?>
<!-- Created with Inkscape (http://www.inkscape.org/) -->

<svg
   width="240"
   height="65"
   viewBox="0 0 63.499998 17.197917"
   version="1.1"
   id="svg1788"
   inkscape:version="1.1.2 (0a00cf5339, 2022-02-04)"
   sodipodi:docname="head-logo-antenki.svg"
   xmlns:inkscape="http://www.inkscape.org/namespaces/inkscape"
   xmlns:sodipodi="http://sodipodi.sourceforge.net/DTD/sodipodi-0.dtd"
   xmlns="http://www.w3.org/2000/svg"
   xmlns:svg="http://www.w3.org/2000/svg">
  <sodipodi:namedview
     id="namedview1790"
     pagecolor="#ffffff"
     bordercolor="#999999"
     borderopacity="1"
     inkscape:pageshadow="0"
     inkscape:pageopacity="0"
     inkscape:pagecheckerboard="false"
     inkscape:document-units="px"
     showgrid="false"
     showborder="true"
     inkscape:zoom="3.754372"
     inkscape:cx="128.65001"
     inkscape:cy="74.446539"
     inkscape:window-width="1920"
     inkscape:window-height="1074"
     inkscape:window-x="0"
     inkscape:window-y="27"
     inkscape:window-maximized="1"
     inkscape:current-layer="layer1"
     units="px" />
  <defs
     id="defs1785" />
  <g
     inkscape:label="Layer 1"
     inkscape:groupmode="layer"
     id="layer1">
    <g
       id="g2041"
       transform="matrix(0.99530328,0,0,0.99530328,0.29822342,-0.28309759)"
       style="fill:#e6e6e6">
      <path
         d="m 26.900516,12.218957 h -1.134873 v -0.283718 h 0.283718 V 9.9492118 H 25.765643 V 9.6654937 h 1.134873 v 0.2837181 h -0.283718 v 1.9860272 h 0.283718 z"
         style="font-size:4.53949px;line-height:1.25;font-family:'Fixedsys Excelsior';-inkscape-font-specification:'Fixedsys Excelsior, Normal';text-align:center;letter-spacing:0px;word-spacing:0px;text-anchor:middle;fill:#e6e6e6;stroke-width:0.113729"
         id="path9014" />
      <path
         d="m 29.737689,12.218957 h -0.567437 v -1.702309 h -0.283718 v 1.418591 h -0.283718 v -1.418591 h -0.283718 v 1.702309 H 27.751662 V 10.23293 h 1.702308 v 0.283718 h 0.283719 z"
         style="font-size:4.53949px;line-height:1.25;font-family:'Fixedsys Excelsior';-inkscape-font-specification:'Fixedsys Excelsior, Normal';text-align:center;letter-spacing:0px;word-spacing:0px;text-anchor:middle;fill:#e6e6e6;stroke-width:0.113729"
         id="path9016" />
      <path
         d="m 32.007425,12.218957 h -0.567436 v -1.702309 h -0.283718 v 1.418591 h -0.283718 v -1.418591 h -0.283719 v 1.702309 H 30.021398 V 10.23293 h 1.702309 v 0.283718 h 0.283718 z"
         style="font-size:4.53949px;line-height:1.25;font-family:'Fixedsys Excelsior';-inkscape-font-specification:'Fixedsys Excelsior, Normal';text-align:center;letter-spacing:0px;word-spacing:0px;text-anchor:middle;fill:#e6e6e6;stroke-width:0.113729"
         id="path9018" />
      <path
         d="m 33.993444,11.367803 h -1.134873 v 0.567436 h 0.851155 v 0.283718 h -1.134873 v -0.283718 h -0.283718 v -1.418591 h 0.283718 V 10.23293 h 1.134873 v 0.283718 h 0.283718 z m -0.567437,-0.283719 v -0.567436 h -0.567436 v 0.567436 z"
         style="font-size:4.53949px;line-height:1.25;font-family:'Fixedsys Excelsior';-inkscape-font-specification:'Fixedsys Excelsior, Normal';text-align:center;letter-spacing:0px;word-spacing:0px;text-anchor:middle;fill:#e6e6e6;stroke-width:0.113729"
         id="path9020" />
      <path
         d="m 36.26318,10.800366 h -0.851154 v 0.283718 h -0.283719 v 1.134873 H 34.560871 V 10.23293 h 0.567436 v 0.567436 h 0.283719 v -0.283718 h 0.283718 V 10.23293 h 0.567436 z"
         style="font-size:4.53949px;line-height:1.25;font-family:'Fixedsys Excelsior';-inkscape-font-specification:'Fixedsys Excelsior, Normal';text-align:center;letter-spacing:0px;word-spacing:0px;text-anchor:middle;fill:#e6e6e6;stroke-width:0.113729"
         id="path9022" />
      <path
         d="m 38.532916,11.935239 h -0.283718 v 0.283718 h -1.418591 v -0.283718 h 1.134873 v -0.567436 h -0.851154 v -0.283719 h -0.283719 v -0.567436 h 0.283719 V 10.23293 h 1.41859 v 0.283718 h -1.134872 v 0.567436 h 0.851154 v 0.283719 h 0.283718 z"
         style="font-size:4.53949px;line-height:1.25;font-family:'Fixedsys Excelsior';-inkscape-font-specification:'Fixedsys Excelsior, Normal';text-align:center;letter-spacing:0px;word-spacing:0px;text-anchor:middle;fill:#e6e6e6;stroke-width:0.113729"
         id="path9024" />
      <path
         d="M 40.235217,9.9492118 H 39.667781 V 9.3817756 h 0.567436 z m 0.567437,2.2697452 h -1.702309 v -0.283718 h 0.567436 V 10.516648 H 39.100345 V 10.23293 h 1.134872 v 1.702309 h 0.567437 z"
         style="font-size:4.53949px;line-height:1.25;font-family:'Fixedsys Excelsior';-inkscape-font-specification:'Fixedsys Excelsior, Normal';text-align:center;letter-spacing:0px;word-spacing:0px;text-anchor:middle;fill:#e6e6e6;stroke-width:0.113729"
         id="path9026" />
      <path
         d="m 43.07239,11.935239 h -0.283718 v 0.283718 h -1.134873 v -0.283718 h -0.283718 v -1.418591 h 0.283718 V 10.23293 h 1.134873 v 0.283718 h 0.283718 z m -0.567436,0 v -1.418591 h -0.567437 v 1.418591 z"
         style="font-size:4.53949px;line-height:1.25;font-family:'Fixedsys Excelsior';-inkscape-font-specification:'Fixedsys Excelsior, Normal';text-align:center;letter-spacing:0px;word-spacing:0px;text-anchor:middle;fill:#e6e6e6;stroke-width:0.113729"
         id="path9028" />
      <path
         d="M 45.342126,12.218957 H 44.77469 v -1.702309 h -0.567436 v 1.702309 H 43.639817 V 10.23293 h 1.418591 v 0.283718 h 0.283718 z"
         style="font-size:4.53949px;line-height:1.25;font-family:'Fixedsys Excelsior';-inkscape-font-specification:'Fixedsys Excelsior, Normal';text-align:center;letter-spacing:0px;word-spacing:0px;text-anchor:middle;fill:#e6e6e6;stroke-width:0.113729"
         id="path9030" />
      <path
         d="m 49.881599,11.935239 h -0.283718 v 0.283718 H 48.463008 V 11.935239 H 48.17929 V 9.9492118 h 0.283718 V 9.6654937 h 1.134873 v 0.2837181 h 0.283718 V 10.516648 H 49.314162 V 9.9492118 h -0.567436 v 1.9860272 h 0.567436 v -0.567436 h 0.567437 z"
         style="font-size:4.53949px;line-height:1.25;font-family:'Fixedsys Excelsior';-inkscape-font-specification:'Fixedsys Excelsior, Normal';text-align:center;letter-spacing:0px;word-spacing:0px;text-anchor:middle;fill:#e6e6e6;stroke-width:0.113729"
         id="path9032" />
      <path
         d="m 52.151336,11.935239 h -0.283718 v 0.283718 h -1.134873 v -0.283718 h -0.283718 v -1.418591 h 0.283718 V 10.23293 h 1.134873 v 0.283718 h 0.283718 z m -0.567436,0 v -1.418591 h -0.567437 v 1.418591 z"
         style="font-size:4.53949px;line-height:1.25;font-family:'Fixedsys Excelsior';-inkscape-font-specification:'Fixedsys Excelsior, Normal';text-align:center;letter-spacing:0px;word-spacing:0px;text-anchor:middle;fill:#e6e6e6;stroke-width:0.113729"
         id="path9034" />
      <path
         d="m 54.421073,11.935239 h -0.283718 v 0.283718 h -1.134872 v -0.283718 h -0.283719 v -1.418591 h 0.283719 V 10.23293 h 1.134872 v 0.283718 h 0.283718 z m -0.567436,0 v -1.418591 h -0.567436 v 1.418591 z"
         style="font-size:4.53949px;line-height:1.25;font-family:'Fixedsys Excelsior';-inkscape-font-specification:'Fixedsys Excelsior, Normal';text-align:center;letter-spacing:0px;word-spacing:0px;text-anchor:middle;fill:#e6e6e6;stroke-width:0.113729"
         id="path9036" />
      <path
         d="M 56.690809,12.218957 H 54.9885 v -0.283718 h 0.567436 V 9.9492118 H 54.9885 V 9.6654937 h 1.134872 v 2.2697453 h 0.567437 z"
         style="font-size:4.53949px;line-height:1.25;font-family:'Fixedsys Excelsior';-inkscape-font-specification:'Fixedsys Excelsior, Normal';text-align:center;letter-spacing:0px;word-spacing:0px;text-anchor:middle;fill:#e6e6e6;stroke-width:0.113729"
         id="path9038" />
      <path
         d="M 58.39311,9.9492118 H 57.825673 V 9.3817756 h 0.567437 z m 0.567436,2.2697452 h -1.702309 v -0.283718 h 0.567436 V 10.516648 H 57.258237 V 10.23293 h 1.134873 v 1.702309 h 0.567436 z"
         style="font-size:4.53949px;line-height:1.25;font-family:'Fixedsys Excelsior';-inkscape-font-specification:'Fixedsys Excelsior, Normal';text-align:center;letter-spacing:0px;word-spacing:0px;text-anchor:middle;fill:#e6e6e6;stroke-width:0.113729"
         id="path9040" />
      <path
         d="m 61.230281,12.218957 h -0.567436 v -1.702309 h -0.567436 v 1.702309 H 59.527972 V 10.23293 h 1.418591 v 0.283718 h 0.283718 z"
         style="font-size:4.53949px;line-height:1.25;font-family:'Fixedsys Excelsior';-inkscape-font-specification:'Fixedsys Excelsior, Normal';text-align:center;letter-spacing:0px;word-spacing:0px;text-anchor:middle;fill:#e6e6e6;stroke-width:0.113729"
         id="path9042" />
      <path
         d="M 63.500018,12.786393 H 63.2163 v 0.283718 h -1.41859 v -0.283718 h 1.134872 V 12.218957 H 62.081428 V 11.935239 H 61.79771 v -1.418591 h 0.283718 V 10.23293 h 1.41859 z m -0.567436,-0.851154 v -1.418591 h -0.567436 v 1.418591 z"
         style="font-size:4.53949px;line-height:1.25;font-family:'Fixedsys Excelsior';-inkscape-font-specification:'Fixedsys Excelsior, Normal';text-align:center;letter-spacing:0px;word-spacing:0px;text-anchor:middle;fill:#e6e6e6;stroke-width:0.113729"
         id="path9044" />
    </g>
    <path
       inkscape:export-filename="C:\Users\8200\flameit-logo.png"
       style="fill:#ff4300;fill-opacity:1;stroke:none;stroke-width:0.0803594;stroke-linecap:butt;stroke-linejoin:round;stroke-miterlimit:4;stroke-dasharray:none;stroke-dashoffset:0;stroke-opacity:1"
       d="m 7.4133184,2.7728896e-7 c 0,0 -0.9121079,1.14234582271104 -0.74684,1.86094852271104 0.1652682,0.7186025 0.1917892,1.8055201 0.1917892,1.8055201 0,0 0.028647,1.5927553 -0.5075153,1.0299876 C 5.8145894,4.1336889 6.1653595,3.8479948 6.2404634,3.5815195 6.3556837,3.1727062 6.2315101,2.2379707 5.9839602,1.9276838 c 0,-9e-7 0.2070578,0.4311351 -0.2138312,1.1472821 C 5.3492402,3.7911129 5.3661309,4.2859435 5.5280586,4.6742378 5.6899871,5.0625319 5.494045,5.4395982 5.3184638,5.5585867 5.1428815,5.677576 4.7682097,5.6469969 4.9417097,4.879623 5.1097228,4.1365164 5.3094583,4.0361916 4.8304793,3.3623174 4.9260942,3.5217962 5.0898277,3.9742531 4.519932,4.7171043 3.7960021,5.6607342 4.102868,7.0153412 4.3024136,7.2264765 1.4012153,7.2063088 3.1532847,7.2175287 2.5787409,7.2114806 c -0.8819072,0 -1.59188617,0.7106114 -1.59188617,1.5933045 v 3.4011799 c 0,0.882693 0.70997897,1.593305 1.59188617,1.593305 H 21.640069 c 0.881908,0 1.591887,-0.710612 1.591887,-1.593305 V 8.8047857 c 0,-0.8826931 -0.709979,-1.5933045 -1.591887,-1.5933045 h -1.653153 c 0,0 0.187873,-1.1719395 -0.01663,-1.9777729 -0.212329,-0.8367102 -1.004236,-1.1395216 -0.47143,-3.0441115 0,0 -1.024611,1.511475 -0.353066,2.7941321 0.671546,1.2826563 0.224061,1.8242626 -0.229201,1.8506635 C 18.463316,6.8607934 18.036639,6.6212766 18.367493,5.6217099 18.698355,4.6221435 17.957776,3.6413077 17.845782,3.251616 17.741131,2.8874737 17.698785,2.644647 17.698785,2.644647 c -0.083,0.5734375 0.232669,1.4486474 0.202376,2.1767206 -0.01749,0.4202673 0.199384,1.2497326 -0.220813,1.2423596 -1.405938,-0.024671 0.268981,-2.6175451 -0.592705,-4.1803239 0,0 -0.270692,-0.5834514 -0.261601,-0.90539028 0,0 -0.386906,1.60175968 -0.05757,2.41327438 0.263847,0.6501496 -0.118233,1.7303308 -0.464921,1.1727989 -0.247676,-0.3982978 -0.19267,-0.9465691 -0.08927,-1.5694373 0.07771,-0.4680451 -0.03922,-1.1740546 -0.03922,-1.1740546 0,0 -0.07223,0.7059197 -0.509951,1.5315949 -0.437721,0.8256747 -0.05711,1.2976574 0.127075,1.8200444 0.184187,0.5223866 0.005,0.9280449 -0.629258,0.9820957 -0.634268,0.05405 -0.820876,-0.3288008 -0.5414,-0.834495 0.219687,-0.3975063 0.471752,-0.3989127 0.352284,-1.1665962 -0.209624,-1.3469993 -0.658418,-1.8331171 -0.304043,-3.44569591 0,0 -0.526823,0.80901341 -0.444135,1.92846881 0.06923,0.9372448 0.173852,0.8140312 0.108797,1.3214989 -0.07128,0.5559901 -0.706073,0.682192 -0.637412,-0.2392232 l 0.147626,-1.9809924 c 0,0 -0.591111,0.9023909 -0.681734,1.9959092 -0.05516,0.6656252 -0.149469,0.8406851 0.07782,1.3293504 0.227279,0.488665 -0.02395,0.9004365 -0.350162,1.1102254 -0.289613,0.1862464 -0.8112,0.1434578 -1.024919,-0.1266384 -0.53753,-0.6793208 0.385546,-1.6626848 0.280822,-2.584429 -0.05251,-0.4890075 -0.461988,-1.0740862 -0.327805,-1.4385591 0,0 -0.324535,0.361968 -0.305607,0.7991643 0.01892,0.4371967 0.0542,1.4772654 0.0542,1.4772654 0,0 -0.09497,0.5340127 -0.511282,0.5937014 -0.416314,0.059688 -0.613658,-0.3868912 -0.161434,-1.0946021 0.452232,-0.7077107 0.105192,-1.5552267 0.105192,-1.5552267 0,0 -0.383095,-1.1554211 -0.114838,-1.70840235 0,0 -0.732264,0.67896175 -0.451822,1.31404135 0.50889,1.1524115 -0.7962434,2.4925047 -0.6008594,1.5227229 0,0 0.6021464,-1.1714114 0.2418324,-1.84666 0,0 0.0016,0.6559392 -0.3687533,0.9592487 C 9.3349164,2.7877148 8.5242727,3.5045852 9.2651588,4.2455672 10.006052,4.9865484 8.730276,6.5017718 8.7427384,6.0989001 8.7552078,5.696029 8.8973197,5.6466348 8.585466,4.5324468 8.2736197,3.4182586 8.535075,2.2672039 8.5890511,2.0581691 8.643055,1.8491338 7.8082031,2.954887 8.0454502,3.7854134 8.2827048,4.6159401 7.7586754,5.2538851 7.7586754,5.2538851 c 0,0 -0.6436222,0.9976621 -0.6091011,0.1753943 C 7.1723929,4.8857571 7.365876,4.6085723 7.5755125,3.8075533 7.7380361,3.1865421 7.5174978,3.1251543 7.2220547,1.8946304 7.0079158,1.0027389 7.4132946,2.7728896e-7 7.4132946,2.7728896e-7 Z M 4.8304793,3.3623174 c -0.025843,-0.043104 -0.046986,-0.066107 -0.046986,-0.066107 0.017119,0.023275 0.031345,0.0441 0.046986,0.066107 z M 2.8368131,7.7116757 H 21.382073 c 0.747981,0 1.350135,0.6026911 1.350135,1.3513328 v 2.8847345 c 0,0.748642 -0.602154,1.351333 -1.350135,1.351333 H 2.8368131 c -0.7479758,0 -1.3501312,-0.602691 -1.3501312,-1.351333 V 9.0630085 c 0,-0.7486417 0.6021554,-1.3513328 1.3501312,-1.3513328 z"
       id="path12170"
       inkscape:connector-curvature="0"
       inkscape:export-xdpi="484"
       inkscape:export-ydpi="484" />
    <g
       inkscape:export-filename="C:\Users\8200\flameit-logo.png"
       aria-label="Flame IT"
       transform="matrix(0.04713935,0,0,0.04718127,-6.5773383,-6.9505243)"
       style="font-style:normal;font-variant:normal;font-weight:normal;font-stretch:normal;font-size:80.9027px;line-height:1.25;font-family:Silom;-inkscape-font-specification:'Silom, Normal';font-variant-ligatures:normal;font-variant-caps:normal;font-variant-numeric:normal;font-feature-settings:normal;text-align:start;letter-spacing:0px;word-spacing:0px;writing-mode:lr-tb;text-anchor:start;fill:#e6e6e6;fill-opacity:1;stroke:none;stroke-width:2.02257"
       id="g12186"
       inkscape:export-xdpi="484"
       inkscape:export-ydpi="484">
      <path
         inkscape:connector-curvature="0"
         d="m 217.58341,401.51575 v -60.677 h 33.73641 v 6.71492 h -20.22567 v 20.22567 h 13.51075 v 6.79582 h -13.51075 v 26.94059 z"
         style="font-style:normal;font-variant:normal;font-weight:normal;font-stretch:normal;font-size:80.9027px;font-family:Silom;-inkscape-font-specification:'Silom, Normal';font-variant-ligatures:normal;font-variant-caps:normal;font-variant-numeric:normal;font-feature-settings:normal;text-align:start;writing-mode:lr-tb;text-anchor:start;fill:#e6e6e6;stroke:none;stroke-width:2.02257"
         id="path12172" />
      <path
         inkscape:connector-curvature="0"
         d="m 264.8293,401.51575 v -60.677 h 13.51074 v 60.677 z"
         style="font-style:normal;font-variant:normal;font-weight:normal;font-stretch:normal;font-size:80.9027px;font-family:Silom;-inkscape-font-specification:'Silom, Normal';font-variant-ligatures:normal;font-variant-caps:normal;font-variant-numeric:normal;font-feature-settings:normal;text-align:start;writing-mode:lr-tb;text-anchor:start;fill:#e6e6e6;stroke:none;stroke-width:2.02257"
         id="path12174" />
      <path
         inkscape:connector-curvature="0"
         d="m 318.87101,374.57516 v -6.79582 q 0,-2.75069 -2.02257,-4.69236 -1.94166,-2.02257 -4.77326,-2.02257 h -6.71492 q -5.98679,0 -6.71492,6.71493 h -6.79582 q 1.61805,-13.42985 13.51074,-13.42985 h 13.51075 q 5.50138,0 9.46561,3.96423 3.96423,3.96423 3.96423,9.46562 v 33.73641 h -13.42984 v -6.71492 q -0.80903,6.71492 -6.79583,6.71492 h -6.71492 q -5.50138,0 -9.54651,-3.96423 -3.96423,-3.96423 -3.96423,-9.54652 v 0 q 0,-5.50138 3.96423,-9.46561 4.04513,-3.96423 9.54651,-3.96423 z m 0,6.71492 h -6.79583 q -2.75069,0 -4.77325,2.02257 -1.94167,1.94166 -1.94167,4.69235 v 0 q 0,2.75069 1.94167,4.77326 2.02256,2.02257 4.77325,2.02257 2.8316,0 4.77326,-2.02257 2.02257,-2.02257 2.02257,-4.77326 z"
         style="font-style:normal;font-variant:normal;font-weight:normal;font-stretch:normal;font-size:80.9027px;font-family:Silom;-inkscape-font-specification:'Silom, Normal';font-variant-ligatures:normal;font-variant-caps:normal;font-variant-numeric:normal;font-feature-settings:normal;text-align:start;writing-mode:lr-tb;text-anchor:start;fill:#e6e6e6;stroke:none;stroke-width:2.02257"
         id="path12176" />
      <path
         inkscape:connector-curvature="0"
         d="m 386.3413,401.51575 h -13.42984 v -33.73641 q 0,-2.75069 -2.02257,-4.69236 -1.94166,-2.02257 -4.77325,-2.02257 -2.75069,0 -4.77326,2.02257 -1.94167,1.94167 -1.94167,4.69236 v 33.73641 h -13.51074 v -47.16626 h 13.51074 v 6.71492 q 0.40452,-3.39791 2.10347,-5.01596 1.69896,-1.69896 4.61146,-1.69896 h 6.79582 q 6.87673,0 10.11283,4.77326 1.61806,-2.42708 4.12604,-3.55972 2.50798,-1.21354 5.9868,-1.21354 h 6.71492 q 5.50138,0 9.46561,3.96423 4.04513,3.96423 4.04513,9.46562 v 33.73641 h -13.51074 v -33.73641 q 0,-2.66979 -2.02257,-4.69236 -1.94166,-2.02257 -4.69235,-2.02257 -2.75069,0 -4.77326,2.02257 -2.02257,1.94167 -2.02257,4.69236 z"
         style="font-style:normal;font-variant:normal;font-weight:normal;font-stretch:normal;font-size:80.9027px;font-family:Silom;-inkscape-font-specification:'Silom, Normal';font-variant-ligatures:normal;font-variant-caps:normal;font-variant-numeric:normal;font-feature-settings:normal;text-align:start;writing-mode:lr-tb;text-anchor:start;fill:#e6e6e6;stroke:none;stroke-width:2.02257"
         id="path12178" />
      <path
         inkscape:connector-curvature="0"
         d="m 467.24397,381.29008 h -26.94059 v 6.71492 q 0,2.75069 1.94166,4.77326 2.02257,2.02257 4.77326,2.02257 h 6.79582 q 6.71493,0 6.71493,-6.79583 h 6.71492 q -1.53715,13.51075 -13.42985,13.51075 h -13.51074 q -5.50138,0 -9.54652,-3.96423 -3.96423,-3.96423 -3.96423,-9.54652 v -20.22566 q 0,-5.50139 3.96423,-9.46562 4.04514,-3.96423 9.54652,-3.96423 h 13.51074 q 5.50139,0 9.46562,3.96423 3.96423,3.96423 3.96423,9.46562 z m -26.94059,-6.71492 h 13.51074 v -6.79582 q 0,-2.75069 -2.02256,-4.69236 -1.94167,-2.02257 -4.77326,-2.02257 -2.75069,0 -4.77326,2.02257 -1.94166,1.94167 -1.94166,4.69236 z"
         style="font-style:normal;font-variant:normal;font-weight:normal;font-stretch:normal;font-size:80.9027px;font-family:Silom;-inkscape-font-specification:'Silom, Normal';font-variant-ligatures:normal;font-variant-caps:normal;font-variant-numeric:normal;font-feature-settings:normal;text-align:start;writing-mode:lr-tb;text-anchor:start;fill:#e6e6e6;stroke:none;stroke-width:2.02257"
         id="path12180" />
      <path
         inkscape:connector-curvature="0"
         d="m 507.85457,401.51575 v -60.677 h 13.42984 v 60.677 z"
         style="font-style:normal;font-variant:normal;font-weight:normal;font-stretch:normal;font-size:80.9027px;font-family:Silom;-inkscape-font-specification:'Silom, Normal';font-variant-ligatures:normal;font-variant-caps:normal;font-variant-numeric:normal;font-feature-settings:normal;text-align:start;writing-mode:lr-tb;text-anchor:start;fill:#e6e6e6;stroke:none;stroke-width:2.02257"
         id="path12182" />
      <path
         inkscape:connector-curvature="0"
         d="m 548.30593,401.51575 v -53.96208 h -13.51075 v -6.71492 h 40.45133 v 6.71492 h -13.51074 v 53.96208 z"
         style="font-style:normal;font-variant:normal;font-weight:normal;font-stretch:normal;font-size:80.9027px;font-family:Silom;-inkscape-font-specification:'Silom, Normal';font-variant-ligatures:normal;font-variant-caps:normal;font-variant-numeric:normal;font-feature-settings:normal;text-align:start;writing-mode:lr-tb;text-anchor:start;fill:#e6e6e6;stroke:none;stroke-width:2.02257"
         id="path12184" />
    </g>
    <g
       id="g14011"
       transform="matrix(0.07313638,0,0,0.07313638,-65.349896,48.872286)">
      <rect
         style="fill:#ff4300;fill-opacity:1;stroke:none;stroke-width:1.13604"
         id="rect12196"
         width="26.71681"
         height="3.6523335"
         x="453.98416"
         y="1032.4114"
         transform="rotate(-90)" />
      <path
         id="path12206"
         style="fill:#ff4300;fill-opacity:1;stroke:none;stroke-width:1.64934"
         d="m 1023.6052,-443.84238 c -0.014,0.8589 0.094,1.72962 0.3289,2.59224 1.5364,8.03902 12.9097,11.10482 18.1528,4.76467 5.9167,-5.76486 1.7703,-17.10224 -6.4893,-17.62988 -6.2175,-1.20671 -11.9213,4.26136 -11.9923,10.27297 z m 3.8106,0.0608 c 0.046,-3.85574 3.7036,-7.36569 7.6913,-6.59198 5.2973,0.33836 7.9556,7.61042 4.1609,11.30797 -3.3628,4.06633 -10.6565,2.09976 -11.642,-3.05599 -0.1507,-0.55334 -0.2166,-1.10937 -0.2099,-1.66 z" />
    </g>
    <g
       id="g14007"
       transform="matrix(0.07313638,0,0,0.07313638,-65.329674,48.872286)">
      <g
         id="g12761"
         transform="translate(519.4041,125.7304)">
        <rect
           style="fill:#ff4300;fill-opacity:1;stroke:none;stroke-width:1.01405"
           id="rect12190"
           width="21.287056"
           height="3.6523335"
           x="584.625"
           y="446.65762"
           transform="rotate(-90)" />
        <path
           id="path12200"
           style="fill:#ff4300;fill-opacity:1;stroke:none;stroke-width:1.64934"
           d="m 461.70977,-569.57278 c -0.0135,0.8589 0.094,1.72962 0.32889,2.59224 1.53642,8.03902 12.90963,11.10482 18.15282,4.76467 5.91663,-5.76486 1.77026,-17.10224 -6.48932,-17.62988 -6.21756,-1.20671 -11.92137,4.26136 -11.99232,10.27297 z m 3.81059,0.0608 c 0.0456,-3.85574 3.70357,-7.36569 7.69124,-6.59198 5.29738,0.33836 7.95567,7.61042 4.16097,11.30797 -3.36282,4.06633 -10.65658,2.09976 -11.642,-3.05599 -0.15076,-0.55334 -0.21667,-1.10937 -0.20991,-1.66 z" />
        <rect
           style="fill:#ff4300;fill-opacity:1;stroke:none;stroke-width:1.01405"
           id="rect12579"
           width="21.287056"
           height="3.6523335"
           x="76.270615"
           y="729.22693"
           transform="rotate(-135)" />
      </g>
    </g>
    <g
       id="g14021"
       transform="matrix(0.07313638,0,0,0.07313638,-65.329674,48.872286)">
      <g
         id="g12596"
         transform="matrix(-1,0,0,1,1697.0464,48.7697)">
        <rect
           style="fill:#ff4300;fill-opacity:1;stroke:none;stroke-width:1.01405"
           id="rect12587"
           width="21.287056"
           height="3.6523335"
           x="507.66431"
           y="545.44574"
           transform="rotate(-90)" />
        <path
           id="path12589"
           style="fill:#ff4300;fill-opacity:1;stroke:none;stroke-width:1.64934"
           d="m 560.49786,-492.61208 c -0.0135,0.8589 0.094,1.72962 0.32889,2.59224 1.53642,8.03902 12.90963,11.10482 18.15282,4.76467 5.91663,-5.76486 1.77026,-17.10224 -6.48932,-17.62988 -6.21756,-1.20671 -11.92137,4.26136 -11.99232,10.27297 z m 3.81059,0.0608 c 0.0456,-3.85574 3.70357,-7.36569 7.69124,-6.59198 5.29738,0.33836 7.95567,7.61042 4.16097,11.30797 -3.36282,4.06633 -10.65658,2.09976 -11.642,-3.05599 -0.15076,-0.55334 -0.21667,-1.10937 -0.20991,-1.66 z" />
        <rect
           style="fill:#ff4300;fill-opacity:1;stroke:none;stroke-width:1.01405"
           id="rect12591"
           width="21.287056"
           height="3.6523335"
           x="-48.002548"
           y="744.66125"
           transform="rotate(-135)" />
      </g>
    </g>
    <g
       id="g14015"
       transform="matrix(0.07313638,0,0,0.07313638,-64.31705,48.872286)">
      <rect
         style="fill:#ff4300;fill-opacity:1;stroke:none;stroke-width:1.12821"
         id="rect13993"
         width="26.349619"
         height="3.6523335"
         x="453.98416"
         y="1068.0295"
         transform="rotate(-90)" />
      <path
         id="path13995"
         style="fill:#ff4300;fill-opacity:1;stroke:none;stroke-width:1.64934"
         d="m 1059.2234,-443.84238 c -0.014,0.8589 0.094,1.72962 0.3289,2.59224 1.5364,8.03902 12.9097,11.10482 18.1528,4.76467 5.9167,-5.76486 1.7703,-17.10224 -6.4893,-17.62988 -6.2175,-1.20671 -11.9213,4.26136 -11.9923,10.27297 z m 3.8106,0.0608 c 0.046,-3.85574 3.7036,-7.36569 7.6913,-6.59198 5.2973,0.33836 7.9556,7.61042 4.1609,11.30797 -3.3628,4.06633 -10.6565,2.09976 -11.642,-3.05599 -0.1507,-0.55334 -0.2166,-1.10937 -0.2099,-1.66 z" />
    </g>
    <g
       id="g14155"
       transform="matrix(0.07313638,0,0,0.07313638,-65.568128,49.023491)">
      <rect
         style="fill:#ff4300;fill-opacity:1;stroke:none;stroke-width:0.81416"
         id="rect14057"
         width="13.721998"
         height="3.6523335"
         x="-1227.4542"
         y="540.23267"
         transform="scale(-1)" />
      <rect
         style="fill:#ff4300;fill-opacity:1;stroke:none;stroke-width:0.81416"
         id="rect14145"
         width="13.721998"
         height="3.6523335"
         x="-1227.4542"
         y="529.45081"
         transform="scale(-1)" />
      <rect
         style="fill:#ff4300;fill-opacity:1;stroke:none;stroke-width:0.81416"
         id="rect14147"
         width="13.721998"
         height="3.6523335"
         x="-1227.4542"
         y="518.66895"
         transform="scale(-1)" />
      <rect
         style="fill:#ff4300;fill-opacity:1;stroke:none;stroke-width:0.81416"
         id="rect14149"
         width="13.721998"
         height="3.6523335"
         x="-1227.4542"
         y="507.88705"
         transform="scale(-1)" />
    </g>
    <g
       id="g14165"
       transform="matrix(0.07313638,0,0,0.07313638,-88.767979,49.023491)">
      <rect
         style="fill:#ff4300;fill-opacity:1;stroke:none;stroke-width:0.81416"
         id="rect14157"
         width="13.721998"
         height="3.6523335"
         x="-1227.4542"
         y="540.23267"
         transform="scale(-1)" />
      <rect
         style="fill:#ff4300;fill-opacity:1;stroke:none;stroke-width:0.81416"
         id="rect14159"
         width="13.721998"
         height="3.6523335"
         x="-1227.4542"
         y="529.45081"
         transform="scale(-1)" />
      <rect
         style="fill:#ff4300;fill-opacity:1;stroke:none;stroke-width:0.81416"
         id="rect14161"
         width="13.721998"
         height="3.6523335"
         x="-1227.4542"
         y="518.66895"
         transform="scale(-1)" />
      <rect
         style="fill:#ff4300;fill-opacity:1;stroke:none;stroke-width:0.81416"
         id="rect14163"
         width="13.721998"
         height="3.6523335"
         x="-1227.4542"
         y="507.88705"
         transform="scale(-1)" />
    </g>
  </g>
</svg>
